<?xml version="1.0" encoding="UTF-8" standalone="no"?><!DOCTYPE svg PUBLIC "-//W3C//DTD SVG 1.1//EN" "http://www.w3.org/Graphics/SVG/1.1/DTD/svg11.dtd"><svg width="100%" height="100%" viewBox="0 0 100 100" version="1.1" xmlns="http://www.w3.org/2000/svg" xmlns:xlink="http://www.w3.org/1999/xlink" xml:space="preserve" xmlns:serif="http://www.serif.com/" style="fill-rule:evenodd;clip-rule:evenodd;stroke-linejoin:round;stroke-miterlimit:2;"><rect x="0" y="0" width="100" height="100" style="fill:none;fill-rule:nonzero;"/><path d="M50,20.537l-11.785,11.785l5.892,5.893l11.786,-11.785c4.861,-4.862 12.816,-4.862 17.677,-0c4.862,4.861 4.862,12.816 0,17.677l-11.785,11.786l5.893,5.892l11.785,-11.785c8.132,-8.132 8.132,-21.331 -0,-29.463c-8.132,-8.132 -21.331,-8.132 -29.463,0Zm5.893,41.248l-11.786,11.785c-4.861,4.862 -12.816,4.862 -17.677,0c-4.862,-4.861 -4.862,-12.816 -0,-17.677l11.785,-11.786l-5.893,-5.892l-11.785,11.785c-8.132,8.132 -8.132,21.331 0,29.463c8.132,8.132 21.331,8.132 29.463,-0l11.785,-11.785l-5.892,-5.893Zm-20.624,-2.946l23.57,-23.57l5.892,5.892l-23.57,23.57l-5.892,-5.892Z" style="fill:#759556;fill-rule:nonzero;"/></svg>