<?xml version="1.0" standalone="no"?>
<!DOCTYPE svg PUBLIC "-//W3C//DTD SVG 20010904//EN"
 "http://www.w3.org/TR/2001/REC-SVG-20010904/DTD/svg10.dtd">
<svg version="1.0" xmlns="http://www.w3.org/2000/svg"
 width="260.000000pt" height="260.000000pt" viewBox="0 0 260.000000 260.000000"
 preserveAspectRatio="xMidYMid meet">
<metadata>
Created by potrace 1.14, written by Peter Selinger 2001-2017
</metadata>
<g transform="translate(0.000000,260.000000) scale(0.100000,-0.100000)"
fill="#000000" stroke="none">
<path d="M2115 2516 c-130 -62 -166 -75 -220 -77 -22 -1 -62 -8 -89 -15 -38
-11 -136 -14 -410 -14 -283 0 -369 -3 -401 -14 -22 -8 -60 -20 -85 -27 -51
-15 -102 -42 -143 -76 -16 -13 -33 -23 -38 -23 -12 0 -151 -141 -176 -179 -24
-37 -50 -82 -62 -111 -6 -14 -15 -32 -21 -40 -32 -48 -74 -189 -81 -270 -2
-25 -3 -107 -3 -183 2 -126 4 -145 29 -205 41 -102 57 -130 76 -135 19 -5 17
5 -8 53 -7 14 -13 33 -13 43 0 10 -4 26 -9 35 -4 9 -11 28 -14 42 l-6 25 574
1 c316 0 578 4 582 8 4 4 -2 15 -13 24 -12 9 -27 27 -33 39 -14 27 -15 76 -1
68 6 -3 10 1 10 9 0 9 -4 16 -10 16 -5 0 -10 17 -10 37 0 20 -7 45 -17 55 -14
15 -15 29 -7 93 5 42 14 76 19 76 6 0 11 -6 12 -13 14 -100 34 -129 157 -231
29 -24 30 -25 13 -50 -22 -35 -21 -58 3 -85 42 -45 139 -42 178 5 19 23 24 26
32 13 14 -22 12 -46 -5 -60 -20 -17 -19 -33 5 -48 11 -7 20 -18 20 -26 0 -7
14 -19 31 -27 29 -11 36 -10 78 13 56 32 123 108 123 140 -1 13 0 205 1 428 3
755 5 695 -18 697 -11 2 -33 -3 -50 -11z m-13 -1162 c7 -7 -29 -45 -64 -68
-31 -20 -62 -10 -71 23 -8 33 7 44 57 39 26 -3 49 -2 52 3 6 10 18 12 26 3z"/>
</g>
</svg>
